<?xml version="1.0" encoding="UTF-8" standalone="no"?>
<!-- Created with Inkscape (http://www.inkscape.org/) -->

<svg
   width="26.450901mm"
   height="22.730682mm"
   viewBox="0 0 26.450901 22.730682"
   version="1.1"
   id="svg5"
   inkscape:export-filename="logo.svg"
   inkscape:export-xdpi="14.825039"
   inkscape:export-ydpi="14.825039"
   xmlns:inkscape="http://www.inkscape.org/namespaces/inkscape"
   xmlns:sodipodi="http://sodipodi.sourceforge.net/DTD/sodipodi-0.dtd"
   xmlns="http://www.w3.org/2000/svg"
   xmlns:svg="http://www.w3.org/2000/svg">
  <sodipodi:namedview
     id="namedview7"
     pagecolor="#ffffff"
     bordercolor="#000000"
     borderopacity="0.25"
     inkscape:showpageshadow="2"
     inkscape:pageopacity="0.0"
     inkscape:pagecheckerboard="0"
     inkscape:deskcolor="#d1d1d1"
     inkscape:document-units="mm"
     showgrid="false" />
  <defs
     id="defs2" />
  <g
     inkscape:label="Слой 1"
     inkscape:groupmode="layer"
     id="layer1"
     transform="translate(-45.434751,-137.36613)">
    <path
       style="fill:#494949;fill-opacity:1;stroke-width:0.264999;stroke-dasharray:none"
       d="m 54.593137,138.83482 -6.768528,0.46028 c 0,0 -5.156771,-0.96392 -0.320376,-1.29375 4.836395,-0.32984 9.008573,-0.63522 9.008573,-0.63522 l -0.125947,3.9453 13.485384,-0.39976 c 0,0 4.552264,9.79386 -0.03324,10.22407 -4.585512,0.43022 -15.802602,2.92943 -16.54438,0.65888 -0.741778,-2.27056 1.298519,-12.9598 1.298519,-12.9598 z"
       id="path3501" />
    <ellipse
       style="fill:#494949;fill-opacity:1;stroke-width:0.264999;stroke-dasharray:none"
       id="path3555"
       cx="57.4664"
       cy="157.78494"
       rx="2.2694566"
       ry="2.116411" />
    <ellipse
       style="fill:#494949;fill-opacity:1;stroke-width:0.264999;stroke-dasharray:none"
       id="path3555-3"
       cx="68.658279"
       cy="157.98041"
       rx="2.2694566"
       ry="2.116411" />
    <path
       style="fill:#ffffff;fill-opacity:1;stroke-width:0.264999;stroke-dasharray:none"
       d="m 56.419921,144.62281 c -0.04121,0.56014 -0.710361,5.39254 0.524225,5.39254 1.234588,0 11.775154,0.73476 11.986254,-0.54441 0.211098,-1.27918 -0.143293,-5.64851 -0.143293,-5.64851 z"
       id="path3697" />
  </g>
</svg>
